<svg id="Layer_1" data-name="Layer 1" xmlns="http://www.w3.org/2000/svg" xmlns:xlink="http://www.w3.org/1999/xlink" viewBox="0 0 1030.53 379"><defs><style>.cls-1{fill:#0c0c0f;}.cls-2{fill:url(#linear-gradient);}</style><linearGradient id="linear-gradient" x1="797.1" y1="217.18" x2="1055.27" y2="217.18" gradientUnits="userSpaceOnUse"><stop offset="0.26" stop-color="#2c70b7"/><stop offset="0.39" stop-color="#2b6bb1"/><stop offset="0.56" stop-color="#285ca0"/><stop offset="0.75" stop-color="#244584"/><stop offset="0.96" stop-color="#1e245d"/><stop offset="1" stop-color="#1d1d55"/></linearGradient></defs><path class="cls-1" d="M178.39,158.83q35.94,0,47.91,13.27t5.7,45.54q-6.54,33.62-25.2,48T150,280H111.63l23.55-121.16ZM24.73,402.64H87.8l15-77h54q35.76,0,58.84-7.51a111.4,111.4,0,0,0,42-25.18,125.91,125.91,0,0,0,39.6-70.92q10-51.46-15.09-80.19t-79.82-28.72H81L24.73,402.64" transform="translate(-24.73 -25.27)"/><path class="cls-1" d="M343.5,36.18h62.56l-15,77h55.74q52.61,0,72.58,18.35t12,59.46L505.22,325.67H441.66l24.89-128.08q4.24-21.85-3.13-29.81T432,159.83H382L349.8,325.67H287.23L343.5,36.18" transform="translate(-24.73 -25.27)"/><path class="cls-1" d="M670.6,158.83q35.94,0,47.91,13.27t5.71,45.54q-6.54,33.62-25.2,48T642.21,280H603.85L627.4,158.83ZM517,402.64H580l15-77h54q35.75,0,58.83-7.51a111.36,111.36,0,0,0,42-25.18,125.91,125.91,0,0,0,39.6-70.92q10-51.46-15.09-80.19t-79.82-28.72H573.22L517,402.64" transform="translate(-24.73 -25.27)"/><path class="cls-1" d="M978.49,170.08c-17-40.94-31.7-76.3-17.34-101,5.33-7.5,11.43-11.3,18.12-11.3,13.46,0,25.75,14.72,25.88,14.87l17.15,20.82-10.72-24.75c-.77-1.77-19.22-43.44-52.31-43.44-11.58,0-23.44,5.21-35.24,15.49l-.38.38C895,74.22,923.17,136.68,948,191.78l.06.13,18.42,42.83h0c8.54,21.87,16.73,48.17,11.61,67.32-8,30-34.61,50.7-34.88,50.9L926,366.18l20.72-6.57c2-.62,48.17-15.69,59.24-55.72,6.92-32.77-1.8-65.57-10.63-91,1.15-.95-1.18,1,0,0l-16.09-41.16" transform="translate(-24.73 -25.27)"/><path class="cls-2" d="M1029.48,53.52,1008,30.08l15.33,27.85c.19.34,18.83,35.15-4.71,75.85-8.86,12.54-22.11,25.3-39.45,38l-31.19,20c-.33-.74-.17-.37,0,0l-1.1.79.16,0-.16,0a514.51,514.51,0,0,1-67.3,32.22c-48,21.35-77.86,54.6-82,91.22-3.16,27.77,9.54,54.62,34.82,73.66l.34.22a98,98,0,0,0,51.11,14.38c47.36,0,84.3-32.77,85.85-34.17l23-20.74-27.37,14.56c-.23.12-23,12.1-46.84,12.1-21.25,0-36.54-9.48-45.45-28.17-11.38-40.47,28.52-68.09,74.71-100.05,6.13-4.24,12.43-8.61,18.7-13.06,0,.1.35-.36.39-.26l27.33-20.31c.42-.65,1.12-1.15,1.08-1.25,22.71-18.73,52.4-47.85,59.33-88.72C1060,87.29,1030.73,54.88,1029.48,53.52Z" transform="translate(-24.73 -25.27)"/></svg>